<svg xmlns="http://www.w3.org/2000/svg" width="1200" height="760" viewBox="0 0 1200 760" role="img" aria-label="Programmatic forecast visual">
  <defs>
    <linearGradient id="bg" x1="0" y1="0" x2="1" y2="1">
      <stop offset="0%" stop-color="#fbf8f2"/>
      <stop offset="55%" stop-color="#f2eadc"/>
      <stop offset="100%" stop-color="#ffffff"/>
    </linearGradient>
    <linearGradient id="panel" x1="0" y1="0" x2="1" y2="1">
      <stop offset="0%" stop-color="#98523D" stop-opacity="0.14"/>
      <stop offset="100%" stop-color="#D6A18F" stop-opacity="0.34"/>
    </linearGradient>
  </defs>
  <rect width="1200" height="760" rx="34" fill="url(#bg)"/>
  <circle cx="920" cy="140" r="150" fill="#F0C89E" opacity="0.32"/>
  <circle cx="1040" cy="600" r="180" fill="#D6A18F" opacity="0.18"/>
  <rect x="58" y="64" width="1084" height="632" rx="28" fill="#ffffff" opacity="0.74"/>
  <rect x="96" y="108" width="470" height="248" rx="24" fill="#1C2029" opacity="0.96"/>
  <text x="132" y="170" fill="#f6f2ea" font-family="Segoe UI, Arial, sans-serif" font-size="20" font-weight="700" letter-spacing="2">AUTONOMOUS FX FORECAST</text>
  <text x="132" y="242" fill="#ffffff" font-family="Georgia, Times New Roman, serif" font-size="72" font-weight="700">GBPUSD</text>
  <text x="132" y="308" fill="#F0C89E" font-family="Segoe UI, Arial, sans-serif" font-size="28" font-weight="700">SHORT | 72% confidence</text>
  <rect x="624" y="116" width="460" height="214" rx="28" fill="url(#panel)"/>
  <path d="M680 286 C760 240, 818 168, 906 184 S1024 246, 1070 154" fill="none" stroke="#98523D" stroke-width="12" opacity="0.72"/>
  <path d="M666 248 C734 188, 816 284, 900 236 S1012 188, 1084 224" fill="none" stroke="#D6A18F" stroke-width="7" opacity="0.8"/>
  <circle cx="710" cy="214" r="10" fill="#1C2029"/>
  <circle cx="834" cy="182" r="10" fill="#98523D"/>
  <circle cx="972" cy="232" r="10" fill="#F0C89E"/>
  <rect x="98" y="420" width="1004" height="196" rx="24" fill="#fffdfa" stroke="#98523D" stroke-opacity="0.18"/>
  <text x="134" y="472" fill="#98523D" font-family="Segoe UI, Arial, sans-serif" font-size="18" font-weight="800" letter-spacing="1.4">RISK</text>
  <text x="134" y="516" fill="#1C2029" font-family="Georgia, Times New Roman, serif" font-size="30" font-weight="700">Medium</text>
  <text x="134" y="566" fill="#98523D" font-family="Segoe UI, Arial, sans-serif" font-size="18" font-weight="800" letter-spacing="1.4">HORIZON</text>
  <text x="134" y="610" fill="#1C2029" font-family="Georgia, Times New Roman, serif" font-size="28">24h to 72h</text>
</svg>