<svg xmlns="http://www.w3.org/2000/svg" width="900" height="320" viewBox="0 0 900 320" role="img" aria-label="Decorative report visual">
  <defs>
    <linearGradient id="bg" x1="0" y1="0" x2="1" y2="1">
      <stop offset="0%" stop-color="#FBF8F1"/>
      <stop offset="45%" stop-color="#F3EBDD"/>
      <stop offset="100%" stop-color="#FFFFFF"/>
    </linearGradient>
    <linearGradient id="shadow" x1="0" y1="0" x2="1" y2="1">
      <stop offset="0%" stop-color="#1C2830" stop-opacity=".05"/>
      <stop offset="100%" stop-color="#A98228" stop-opacity=".18"/>
    </linearGradient>
  </defs>
  <rect width="900" height="320" rx="28" fill="url(#bg)"/>
  <rect x="0" y="0" width="900" height="320" rx="28" fill="url(#shadow)"/>
  <rect x="42" y="42" width="816" height="236" rx="24" fill="#FFFFFF" opacity=".28"/>
  <path d="M48 274 H852" stroke="#1C2830" stroke-opacity=".10" stroke-width="2"/>
  <rect x="470" y="34" width="284" height="250" rx="34" fill="#A98228" opacity=".18"/><rect x="530" y="70" width="210" height="174" rx="24" fill="#D7C08E" opacity=".36"/><path d="M78 226 C180 182, 260 162, 342 146 S530 104, 690 96" fill="none" stroke="#A98228" stroke-width="10" opacity=".55"/><path d="M78 248 C166 236, 246 224, 358 198 S552 150, 742 156" fill="none" stroke="#E9D9A6" stroke-width="7" opacity=".58"/>
  <circle cx="96" cy="86" r="10" fill="#A98228" opacity=".88"/>
  <circle cx="124" cy="86" r="10" fill="#D7C08E" opacity=".75"/>
  <circle cx="152" cy="86" r="10" fill="#E9D9A6" opacity=".88"/>
</svg>