<svg xmlns="http://www.w3.org/2000/svg" width="900" height="320" viewBox="0 0 900 320" role="img" aria-label="Decorative report visual">
  <defs>
    <linearGradient id="bg" x1="0" y1="0" x2="1" y2="1">
      <stop offset="0%" stop-color="#FBF8F1"/>
      <stop offset="45%" stop-color="#F3EBDD"/>
      <stop offset="100%" stop-color="#FFFFFF"/>
    </linearGradient>
    <linearGradient id="shadow" x1="0" y1="0" x2="1" y2="1">
      <stop offset="0%" stop-color="#13242C" stop-opacity=".05"/>
      <stop offset="100%" stop-color="#2C6A72" stop-opacity=".18"/>
    </linearGradient>
  </defs>
  <rect width="900" height="320" rx="28" fill="url(#bg)"/>
  <rect x="0" y="0" width="900" height="320" rx="28" fill="url(#shadow)"/>
  <rect x="42" y="42" width="816" height="236" rx="24" fill="#FFFFFF" opacity=".28"/>
  <path d="M48 274 H852" stroke="#13242C" stroke-opacity=".10" stroke-width="2"/>
  <path d="M68 214 C148 118, 236 274, 356 176 S562 74, 770 188" fill="none" stroke="#2C6A72" stroke-width="12" opacity=".52"/><path d="M68 244 C172 156, 282 292, 418 214 S612 136, 792 244" fill="none" stroke="#8FC4C7" stroke-width="7" opacity=".56"/><circle cx="690" cy="108" r="84" fill="#F0D7A2" opacity=".24"/>
  <circle cx="96" cy="86" r="10" fill="#2C6A72" opacity=".88"/>
  <circle cx="124" cy="86" r="10" fill="#8FC4C7" opacity=".75"/>
  <circle cx="152" cy="86" r="10" fill="#F0D7A2" opacity=".88"/>
</svg>