<svg xmlns="http://www.w3.org/2000/svg" width="900" height="320" viewBox="0 0 900 320" role="img" aria-label="Decorative report visual">
  <defs>
    <linearGradient id="bg" x1="0" y1="0" x2="1" y2="1">
      <stop offset="0%" stop-color="#FBF8F1"/>
      <stop offset="45%" stop-color="#F3EBDD"/>
      <stop offset="100%" stop-color="#FFFFFF"/>
    </linearGradient>
    <linearGradient id="shadow" x1="0" y1="0" x2="1" y2="1">
      <stop offset="0%" stop-color="#12202D" stop-opacity=".05"/>
      <stop offset="100%" stop-color="#274F69" stop-opacity=".18"/>
    </linearGradient>
  </defs>
  <rect width="900" height="320" rx="28" fill="url(#bg)"/>
  <rect x="0" y="0" width="900" height="320" rx="28" fill="url(#shadow)"/>
  <rect x="42" y="42" width="816" height="236" rx="24" fill="#FFFFFF" opacity=".28"/>
  <path d="M48 274 H852" stroke="#12202D" stroke-opacity=".10" stroke-width="2"/>
  <line x1="110" y1="82" x2="110" y2="224" stroke="#9DC3D4" stroke-width="4" opacity=".55"/><rect x="94" y="116" width="32" height="68" rx="9" fill="#274F69" opacity=".78"/><line x1="182" y1="94" x2="182" y2="213" stroke="#9DC3D4" stroke-width="4" opacity=".55"/><rect x="166" y="134" width="32" height="80" rx="9" fill="#274F69" opacity=".78"/><line x1="254" y1="106" x2="254" y2="202" stroke="#9DC3D4" stroke-width="4" opacity=".55"/><rect x="238" y="116" width="32" height="92" rx="9" fill="#274F69" opacity=".78"/><line x1="326" y1="82" x2="326" y2="191" stroke="#9DC3D4" stroke-width="4" opacity=".55"/><rect x="310" y="134" width="32" height="68" rx="9" fill="#274F69" opacity=".78"/><line x1="398" y1="94" x2="398" y2="224" stroke="#9DC3D4" stroke-width="4" opacity=".55"/><rect x="382" y="116" width="32" height="80" rx="9" fill="#274F69" opacity=".78"/><line x1="470" y1="106" x2="470" y2="213" stroke="#9DC3D4" stroke-width="4" opacity=".55"/><rect x="454" y="134" width="32" height="92" rx="9" fill="#274F69" opacity=".78"/><line x1="542" y1="82" x2="542" y2="202" stroke="#9DC3D4" stroke-width="4" opacity=".55"/><rect x="526" y="116" width="32" height="68" rx="9" fill="#274F69" opacity=".78"/><line x1="614" y1="94" x2="614" y2="191" stroke="#9DC3D4" stroke-width="4" opacity=".55"/><rect x="598" y="134" width="32" height="80" rx="9" fill="#274F69" opacity=".78"/><line x1="686" y1="106" x2="686" y2="224" stroke="#9DC3D4" stroke-width="4" opacity=".55"/><rect x="670" y="116" width="32" height="92" rx="9" fill="#274F69" opacity=".78"/>
  <circle cx="96" cy="86" r="10" fill="#274F69" opacity=".88"/>
  <circle cx="124" cy="86" r="10" fill="#9DC3D4" opacity=".75"/>
  <circle cx="152" cy="86" r="10" fill="#E5C784" opacity=".88"/>
</svg>